<svg width="382" height="275" viewBox="0 0 382 275" fill="none" xmlns="http://www.w3.org/2000/svg">
<g clip-path="url(#clip0_3_19)">
<path opacity="0.1" d="M221.948 48.4984C197.459 47.6481 174.116 39.7495 151.86 31.1095C129.604 22.4695 107.545 12.895 83.629 8.31671C68.2523 5.36879 50.667 4.95418 38.2798 13.1901C26.357 21.1133 22.5058 34.7918 20.4342 47.483C18.8761 57.033 17.9723 67.0819 22.2314 76.0241C25.1963 82.2291 30.4579 87.4468 34.098 93.3918C46.7595 114.076 37.8086 139.585 24.0849 159.799C17.6487 169.286 10.1819 178.312 5.21583 188.4C0.249717 198.488 -2.05045 210.044 2.29666 220.332C6.60507 230.521 16.8679 238.188 27.9889 243.574C50.5755 254.505 77.1892 257.632 103.142 259.424C160.59 263.349 218.347 261.648 275.946 259.948C297.263 259.315 318.675 258.679 339.644 255.38C351.289 253.549 363.314 250.647 371.769 243.641C382.499 234.745 385.162 219.685 377.969 208.529C365.906 189.823 332.553 185.174 324.12 165.098C319.48 154.047 324.246 141.736 330.992 131.486C345.458 109.502 369.711 90.212 370.988 65.0791C371.867 47.8168 360.208 30.5333 342.18 22.3641C323.286 13.7944 297.084 14.8766 283.146 29.04C268.792 43.632 243.568 49.2468 221.948 48.4984Z" fill="#6C63FF"/>
<path d="M85.2011 254.751C85.2011 254.751 65.8572 240.141 62.203 221.558C60.7211 213.753 56.7462 206.638 50.8745 201.281C48.0656 198.761 45.0318 196.503 41.811 194.535" stroke="#535461" stroke-width="2" stroke-miterlimit="10"/>
<path d="M39.444 182.827C41.1392 185.118 41.906 194.826 41.906 194.826C41.906 194.826 32.8425 191.26 31.1437 188.973C30.328 187.873 29.9829 186.495 30.1844 185.141C30.3859 183.787 31.1175 182.569 32.2182 181.754C33.3189 180.939 34.6985 180.594 36.0536 180.796C37.4087 180.997 38.6283 181.728 39.444 182.827Z" fill="#6C63FF"/>
<path d="M55.6999 190.445C55.8757 193.287 51.2438 201.854 51.2438 201.854C51.2438 201.854 45.5707 193.934 45.3913 191.091C45.3231 189.736 45.7922 188.409 46.6968 187.397C47.6014 186.385 48.8688 185.77 50.2243 185.684C51.5798 185.599 52.9143 186.051 53.9385 186.942C54.9628 187.834 55.5944 189.092 55.6964 190.445H55.6999Z" fill="#6C63FF"/>
<path d="M71.4564 212.342C70.1762 214.886 61.8442 219.945 61.8442 219.945C61.8442 219.945 60.9544 210.248 62.2346 207.704C62.8648 206.507 63.9399 205.606 65.2286 205.194C66.5173 204.781 67.9166 204.891 69.1252 205.499C70.3339 206.107 71.2553 207.164 71.6913 208.444C72.1273 209.724 72.0429 211.124 71.4564 212.342Z" fill="#6C63FF"/>
<path d="M79.6477 231.582C78.8141 234.305 71.4599 240.697 71.4599 240.697C71.4599 240.697 68.9382 231.291 69.7717 228.564C70.1724 227.256 71.0768 226.16 72.2862 225.518C73.4955 224.876 74.9107 224.74 76.2203 225.14C77.5299 225.54 78.6268 226.444 79.2695 227.652C79.9123 228.86 80.0483 230.274 79.6477 231.582Z" fill="#6C63FF"/>
<path d="M42.8591 208.74C45.6727 209.12 54.5674 205.107 54.5674 205.107C54.5674 205.107 47.062 198.895 44.2342 198.516C42.877 198.333 41.503 198.697 40.4143 199.527C39.3257 200.357 38.6117 201.585 38.4293 202.941C38.2469 204.297 38.6112 205.67 39.4419 206.757C40.2727 207.845 41.5019 208.558 42.8591 208.74Z" fill="#6C63FF"/>
<path d="M52.7245 231.126C55.5381 230.644 62.8079 224.162 62.8079 224.162C62.8079 224.162 53.7831 220.479 50.973 220.961C50.3001 221.071 49.6558 221.313 49.0772 221.673C48.4986 222.034 47.9972 222.505 47.6018 223.06C47.2065 223.615 46.925 224.242 46.7738 224.906C46.6225 225.57 46.6044 226.258 46.7205 226.929C46.8366 227.6 47.0846 228.242 47.4503 228.817C47.8159 229.392 48.2919 229.889 48.8507 230.279C49.4096 230.669 50.0402 230.945 50.7063 231.09C51.3724 231.235 52.0607 231.247 52.7315 231.126H52.7245Z" fill="#6C63FF"/>
<path d="M65.298 251.571C68.1503 251.571 76.4155 246.41 76.4155 246.41C76.4155 246.41 68.1468 241.255 65.2945 241.255C63.9251 241.255 62.6119 241.799 61.6436 242.766C60.6754 243.733 60.1314 245.045 60.1314 246.413C60.1314 247.781 60.6754 249.093 61.6436 250.061C62.6119 251.028 63.9251 251.571 65.2945 251.571H65.298Z" fill="#6C63FF"/>
<path d="M273.118 128.391C273.118 128.391 285.041 107.292 303.014 101.213C310.56 98.7093 317.091 93.8285 321.626 87.3027C323.753 84.1829 325.588 80.8744 327.109 77.4189" stroke="#535461" stroke-width="2" stroke-miterlimit="10"/>
<path d="M338.392 73.554C336.345 75.5357 326.817 77.5876 326.817 77.5876C326.817 77.5876 329.156 68.136 331.203 66.1508C332.191 65.2267 333.503 64.7271 334.856 64.7596C336.209 64.7921 337.495 65.3541 338.437 66.3246C339.38 67.2951 339.903 68.5965 339.895 69.9486C339.886 71.3008 339.346 72.5955 338.392 73.554Z" fill="#6C63FF"/>
<path d="M333.004 90.6407C330.19 91.1959 321.091 87.7455 321.091 87.7455C321.091 87.7455 328.196 81.0696 330.992 80.525C331.663 80.3762 332.358 80.3628 333.034 80.4857C333.711 80.6086 334.356 80.8653 334.932 81.2408C335.508 81.6162 336.003 82.1028 336.388 82.672C336.773 83.2412 337.041 83.8815 337.175 84.5553C337.309 85.2292 337.306 85.923 337.168 86.596C337.03 87.2691 336.759 87.9077 336.371 88.4746C335.982 89.0415 335.484 89.5251 334.906 89.8971C334.328 90.269 333.681 90.5219 333.004 90.6407Z" fill="#6C63FF"/>
<path d="M313.392 109.15C310.698 108.219 304.575 100.644 304.575 100.644C304.575 100.644 314.071 98.4725 316.772 99.4036C317.421 99.6187 318.021 99.9604 318.537 100.409C319.052 100.857 319.474 101.404 319.777 102.016C320.079 102.629 320.257 103.295 320.3 103.977C320.342 104.659 320.249 105.342 320.025 105.988C319.801 106.633 319.452 107.228 318.996 107.737C318.54 108.246 317.988 108.66 317.371 108.954C316.754 109.248 316.084 109.417 315.401 109.451C314.718 109.485 314.035 109.382 313.392 109.15Z" fill="#6C63FF"/>
<path d="M295.371 119.818C292.557 119.354 285.256 112.906 285.256 112.906C285.256 112.906 294.256 109.161 297.066 109.625C298.419 109.847 299.627 110.597 300.427 111.71C301.226 112.822 301.55 114.206 301.327 115.557C301.105 116.909 300.354 118.116 299.24 118.915C298.127 119.713 296.741 120.036 295.389 119.814L295.371 119.818Z" fill="#6C63FF"/>
<path d="M313.146 80.3563C313.143 83.2059 318.316 91.4734 318.316 91.4734C318.316 91.4734 323.483 83.2164 323.483 80.3704C323.501 79.6819 323.381 78.9969 323.129 78.3556C322.878 77.7143 322.501 77.1297 322.02 76.6364C321.539 76.1432 320.964 75.7511 320.329 75.4834C319.693 75.2157 319.011 75.0778 318.322 75.0778C317.632 75.0778 316.95 75.2157 316.315 75.4834C315.68 75.7511 315.104 76.1432 314.623 76.6364C314.142 77.1297 313.765 77.7143 313.514 78.3556C313.262 78.9969 313.142 79.6819 313.16 80.3704L313.146 80.3563Z" fill="#6C63FF"/>
<path d="M292.244 93.0967C293.095 95.8162 300.495 102.158 300.495 102.158C300.495 102.158 302.957 92.7348 302.099 90.0153C301.654 88.7553 300.737 87.7169 299.541 87.119C298.345 86.521 296.963 86.41 295.687 86.8093C294.411 87.2087 293.339 88.0873 292.699 89.26C292.058 90.4328 291.897 91.8082 292.251 93.0967H292.244Z" fill="#6C63FF"/>
<path d="M273.65 108.265C274.029 111.076 280.248 118.584 280.248 118.584C280.248 118.584 284.261 109.713 283.881 106.891C283.805 106.208 283.594 105.546 283.259 104.945C282.924 104.344 282.472 103.817 281.929 103.393C281.387 102.969 280.766 102.658 280.101 102.478C279.437 102.298 278.743 102.252 278.061 102.344C277.379 102.435 276.722 102.662 276.128 103.011C275.535 103.36 275.018 103.824 274.607 104.376C274.196 104.928 273.899 105.556 273.735 106.224C273.571 106.892 273.542 107.586 273.65 108.265Z" fill="#6C63FF"/>
<path opacity="0.25" d="M338.392 73.554C336.345 75.5357 326.817 77.5876 326.817 77.5876C326.817 77.5876 329.156 68.136 331.203 66.1508C332.191 65.2267 333.503 64.7271 334.856 64.7596C336.209 64.7921 337.495 65.3541 338.437 66.3246C339.38 67.2951 339.903 68.5965 339.895 69.9486C339.886 71.3008 339.346 72.5955 338.392 73.554Z" fill="black"/>
<path opacity="0.25" d="M333.004 90.6407C330.19 91.1959 321.091 87.7455 321.091 87.7455C321.091 87.7455 328.196 81.0696 330.992 80.525C331.663 80.3762 332.358 80.3628 333.034 80.4857C333.711 80.6086 334.356 80.8653 334.932 81.2408C335.508 81.6162 336.003 82.1028 336.388 82.672C336.773 83.2412 337.041 83.8815 337.175 84.5553C337.309 85.2292 337.306 85.923 337.168 86.596C337.03 87.2691 336.759 87.9077 336.371 88.4746C335.982 89.0415 335.484 89.5251 334.906 89.8971C334.328 90.269 333.681 90.5219 333.004 90.6407Z" fill="black"/>
<path opacity="0.25" d="M313.392 109.15C310.698 108.219 304.575 100.644 304.575 100.644C304.575 100.644 314.071 98.4725 316.772 99.4036C317.421 99.6187 318.021 99.9604 318.537 100.409C319.052 100.857 319.474 101.404 319.777 102.016C320.079 102.629 320.257 103.295 320.3 103.977C320.342 104.659 320.249 105.342 320.025 105.988C319.801 106.633 319.452 107.228 318.996 107.737C318.54 108.246 317.988 108.66 317.371 108.954C316.754 109.248 316.084 109.417 315.401 109.451C314.718 109.485 314.035 109.382 313.392 109.15Z" fill="black"/>
<path opacity="0.25" d="M295.371 119.818C292.557 119.354 285.256 112.906 285.256 112.906C285.256 112.906 294.256 109.161 297.066 109.625C298.419 109.847 299.627 110.597 300.427 111.71C301.226 112.822 301.55 114.206 301.327 115.557C301.105 116.909 300.354 118.116 299.24 118.915C298.127 119.713 296.741 120.036 295.389 119.814L295.371 119.818Z" fill="black"/>
<path opacity="0.25" d="M313.146 80.3563C313.143 83.2059 318.316 91.4734 318.316 91.4734C318.316 91.4734 323.483 83.2164 323.483 80.3704C323.501 79.6819 323.381 78.9969 323.129 78.3556C322.878 77.7143 322.501 77.1297 322.02 76.6364C321.539 76.1432 320.964 75.7511 320.329 75.4834C319.693 75.2157 319.011 75.0778 318.322 75.0778C317.632 75.0778 316.95 75.2157 316.315 75.4834C315.68 75.7511 315.104 76.1432 314.623 76.6364C314.142 77.1297 313.765 77.7143 313.514 78.3556C313.262 78.9969 313.142 79.6819 313.16 80.3704L313.146 80.3563Z" fill="black"/>
<path opacity="0.25" d="M292.244 93.0967C293.095 95.8162 300.495 102.158 300.495 102.158C300.495 102.158 302.957 92.7348 302.099 90.0153C301.654 88.7553 300.737 87.7169 299.541 87.119C298.345 86.521 296.963 86.41 295.687 86.8093C294.411 87.2087 293.339 88.0873 292.699 89.26C292.058 90.4328 291.897 91.8082 292.251 93.0967H292.244Z" fill="black"/>
<path opacity="0.25" d="M273.65 108.265C274.029 111.076 280.248 118.584 280.248 118.584C280.248 118.584 284.261 109.713 283.881 106.891C283.805 106.208 283.594 105.546 283.259 104.945C282.924 104.344 282.472 103.817 281.929 103.393C281.387 102.969 280.766 102.658 280.101 102.478C279.437 102.298 278.743 102.252 278.061 102.344C277.379 102.435 276.722 102.662 276.128 103.011C275.535 103.36 275.018 103.824 274.607 104.376C274.196 104.928 273.899 105.556 273.735 106.224C273.571 106.892 273.542 107.586 273.65 108.265Z" fill="black"/>
<path d="M273.804 127.973C273.804 127.973 276.147 103.855 290.095 91.0307C295.979 85.6859 299.969 78.58 301.47 70.7782C302.152 67.0694 302.492 63.3057 302.486 59.5347" stroke="#535461" stroke-width="2" stroke-miterlimit="10"/>
<path d="M311.229 51.3971C310.174 54.0394 302.282 59.7736 302.282 59.7736C302.282 59.7736 300.587 50.1849 301.652 47.5427C302.165 46.274 303.162 45.2608 304.423 44.7261C305.684 44.1914 307.105 44.1789 308.375 44.6914C309.645 45.2039 310.659 46.1995 311.195 47.459C311.73 48.7186 311.742 50.1389 311.229 51.4077V51.3971Z" fill="#6C63FF"/>
<path d="M313.238 69.2182C310.906 70.8555 301.174 71.3931 301.174 71.3931C301.174 71.3931 304.966 62.4194 307.297 60.782C307.85 60.3685 308.481 60.0701 309.151 59.9044C309.822 59.7387 310.519 59.7092 311.201 59.8174C311.883 59.9257 312.537 60.1696 313.123 60.5347C313.709 60.8998 314.216 61.3787 314.613 61.943C315.011 62.5073 315.291 63.1456 315.437 63.82C315.583 64.4945 315.593 65.1913 315.464 65.8694C315.336 66.5474 315.073 67.1929 314.69 67.7675C314.308 68.3421 313.814 68.8342 313.238 69.2147V69.2182Z" fill="#6C63FF"/>
<path d="M302.806 94.0875C299.964 94.3265 291.291 89.8712 291.291 89.8712C291.291 89.8712 299.099 84.0386 301.941 83.7997C303.306 83.6851 304.66 84.1167 305.706 84.9997C306.752 85.8826 307.404 87.1446 307.519 88.5079C307.634 89.8712 307.202 91.2243 306.318 92.2693C305.434 93.3144 304.171 93.9659 302.806 94.0805V94.0875Z" fill="#6C63FF"/>
<path d="M290.669 111.125C287.908 111.828 278.609 108.922 278.609 108.922C278.609 108.922 285.316 101.856 288.077 101.139C289.402 100.796 290.81 100.993 291.99 101.686C293.17 102.38 294.027 103.513 294.37 104.837C294.714 106.162 294.517 107.568 293.823 108.747C293.129 109.926 291.994 110.782 290.669 111.125Z" fill="#6C63FF"/>
<path d="M290.915 67.8549C292.068 70.4585 300.137 75.9362 300.137 75.9362C300.137 75.9362 301.508 66.2949 300.355 63.6913C299.78 62.4732 298.751 61.5279 297.488 61.0576C296.225 60.5873 294.827 60.6291 293.595 61.1742C292.362 61.7192 291.392 62.7243 290.891 63.9746C290.39 65.225 290.399 66.6214 290.915 67.8655V67.8549Z" fill="#6C63FF"/>
<path d="M276.973 87.9598C278.855 90.0996 288.189 92.9035 288.189 92.9035C288.189 92.9035 286.613 83.2937 284.732 81.1539C284.288 80.6341 283.745 80.2077 283.134 79.8993C282.523 79.591 281.858 79.407 281.175 79.3579C280.493 79.3089 279.808 79.3957 279.159 79.6136C278.511 79.8314 277.912 80.1758 277.398 80.6267C276.884 81.0776 276.465 81.6261 276.165 82.2403C275.865 82.8545 275.69 83.5221 275.65 84.2044C275.611 84.8867 275.707 85.5701 275.934 86.2148C276.162 86.8594 276.515 87.4526 276.973 87.9598Z" fill="#6C63FF"/>
<path d="M266.109 109.365C267.6 111.789 276.326 116.128 276.326 116.128C276.326 116.128 276.4 106.392 274.919 103.964C274.182 102.843 273.037 102.053 271.726 101.762C270.416 101.47 269.043 101.7 267.9 102.402C266.756 103.105 265.931 104.224 265.6 105.524C265.269 106.824 265.458 108.202 266.126 109.365H266.109Z" fill="#6C63FF"/>
<path d="M255.867 33.5234C256.451 31.3836 257.154 29.2333 257.647 27.0654C257.056 29.2333 256.349 31.3906 255.867 33.5234Z" fill="url(#paint0_linear_3_19)"/>
<path d="M253.25 54.1342C253.201 54.0499 253.166 53.9656 253.127 53.8883C253.127 53.8532 253.092 53.8251 253.078 53.7899C253.001 53.826 252.923 53.8577 252.842 53.8848C252.688 53.9445 252.529 54.0007 252.368 54.0464C252.206 54.0921 252.139 54.1167 252.016 54.1448C251.914 54.1799 251.809 54.2069 251.703 54.2256L251.731 54.2888C251.861 54.2607 251.988 54.2361 252.118 54.201L252.153 54.6367C252.301 54.6367 252.438 54.6156 252.572 54.6156C252.635 54.6121 252.698 54.6121 252.762 54.6156C253.036 54.6156 253.275 54.6156 253.465 54.6156C253.391 54.4575 253.314 54.2924 253.25 54.1342ZM324.647 167.67C322.994 165.446 319.695 141.574 319.695 141.574C319.695 141.574 313.206 124.6 314.975 117.826C316.744 111.051 310.143 93.7186 310.143 93.7186C310.143 93.7186 305.781 91.8248 305.546 89.0139C305.546 89.0139 287.739 83.3921 286.905 79.1758C286.23 75.7184 275.186 73.2378 271.219 72.4542C270.009 67.5773 268.792 63.0272 267.896 60.5431C267.653 59.7701 267.424 59.1025 267.213 58.5755C265.697 54.7105 261.013 54.3591 257.615 54.6683C257.468 54.0096 257.194 53.3856 256.81 52.8307C256.754 52.6399 256.642 52.47 256.49 52.3423C256.417 52.2802 256.339 52.2238 256.258 52.1736C256.196 52.0598 256.115 51.9575 256.018 51.8715C255.922 51.7846 255.816 51.7092 255.702 51.6466C255.62 51.6024 255.536 51.5637 255.449 51.5307C255.245 51.4531 255.034 51.3955 254.819 51.3585C254.569 51.307 254.315 51.2741 254.059 51.2601C254.68 50.9888 255.234 50.5846 255.681 50.076C255.985 49.719 256.211 49.3025 256.345 48.8533C256.457 48.4797 256.507 48.0904 256.493 47.7008C256.402 47.8614 256.296 48.0131 256.177 48.1541C256.324 46.5975 255.501 45.0164 255.03 43.4669C254.459 41.4497 254.353 39.3294 254.721 37.2654C255.192 34.1523 256.36 31.0041 257.151 27.8349C257.153 27.8173 257.153 27.7997 257.151 27.7821C257.566 26.2082 257.823 24.5969 257.918 22.972C258.055 19.6938 257.214 16.4226 255.864 13.4361C254.664 10.7903 252.895 8.18672 250.187 7.11156C248.175 6.29991 245.921 6.42992 243.754 6.2964C238.894 5.99423 234.258 4.28661 229.637 2.7336C225.015 1.18058 220.26 -0.231893 215.396 0.038655C210.532 0.309203 205.527 2.65278 203.308 6.95344C202.605 8.29564 202.2 9.78893 201.36 11.0503C199.784 13.429 196.963 14.6202 194.61 16.261C192.257 17.9019 190.186 20.2314 189.335 23.0107C188.87 24.508 188.804 26.1007 189.145 27.6311C189.221 27.9767 189.32 28.317 189.44 28.65C189.774 29.5784 190.295 30.4286 190.97 31.1482C191.48 31.68 192.065 32.1335 192.708 32.4939C193.514 32.9407 194.378 33.2764 195.275 33.4918C195.243 33.5972 195.212 33.7096 195.177 33.8185C195.12 33.9977 195.071 34.1699 195.018 34.3631C194.902 34.7953 194.793 35.2345 194.702 35.6772C194.698 35.7088 194.698 35.7406 194.702 35.7721C194.27 37.7706 194.053 39.8096 194.055 41.8542C194.054 42.8211 194.103 43.7875 194.202 44.7494C195.609 59.0076 207.391 70.2547 221.949 70.9855C222.448 71.0101 222.951 71.0242 223.461 71.0242C223.693 71.0242 223.922 71.0242 224.164 71.0242C224.393 71.3264 224.618 71.6356 224.833 71.9377C225.047 72.2399 225.244 72.5491 225.43 72.8513L224.92 72.3242L224.41 71.8569C224.272 72.0465 224.118 72.224 223.95 72.3875C223.617 72.2706 223.278 72.1744 222.933 72.0993C221.474 71.7761 219.251 71.6566 216.325 72.5386C213.634 73.3432 210.346 74.9981 206.498 78.1428L187.748 89.3863L177.605 95.5492L173.951 104.474C173.951 104.474 171.204 115.078 168.148 127.228C168.028 127.263 167.912 127.298 167.796 127.34C167.549 127.312 167.3 127.298 167.05 127.298C165.277 127.294 163.571 127.977 162.291 129.202C161.011 130.428 160.256 132.102 160.185 133.872C154.108 141.251 153.763 148.629 155.191 152.016C155.32 152.334 155.483 152.637 155.676 152.919C156.612 154.269 158.36 157.747 160.132 161.454C160.087 161.76 160.059 162.016 160.044 162.209C160.041 162.273 160.041 162.336 160.044 162.399C160.044 162.399 161.1 178.319 157.583 182.884C156.812 183.878 156.928 185.185 157.583 186.633C159.939 191.84 169.256 198.793 169.256 198.793C169.256 198.793 180.429 198.734 186.655 198.055C186.637 198.681 186.623 199.303 186.609 199.911C186.468 206.052 186.468 211.2 186.468 211.2L186.236 217.64C186.236 217.64 184.126 231.213 183.071 234.955C182.406 237.302 183.173 259.034 183.841 275.011H293.932C295.227 265.559 293.401 236.842 293.401 236.842C293.401 236.842 291.667 229.418 291.604 222.946C291.601 222.939 291.599 222.931 291.599 222.923C291.599 222.915 291.601 222.907 291.604 222.9C291.604 222.334 291.604 221.783 291.625 221.242L292.424 221.214L293.859 221.164H293.989C293.989 221.164 294.024 221.031 294.105 220.813C294.295 220.27 294.554 219.754 294.875 219.278C295.487 218.375 296.444 217.489 297.882 217.429C298.677 217.398 299.908 216.755 301.297 215.806C301.306 215.808 301.316 215.808 301.325 215.806C305.064 213.28 310.006 208.617 311.205 207.851C312.854 206.797 320.754 199.77 320.754 199.77C320.754 199.77 321.932 198.28 323.187 196.485L323.233 196.422C324.795 194.173 326.455 191.485 326.047 190.638C325.343 189.12 326.518 185.491 326.518 185.491C330.186 178.783 326.3 169.894 324.647 167.67ZM256.637 59.5979C256.671 59.7028 256.692 59.8113 256.701 59.9212C256.613 59.8052 256.525 59.6822 256.437 59.5698L256.353 59.4574L256.293 59.373L256.426 59.1903C256.426 59.1903 256.426 59.1903 256.426 59.2149C256.519 59.3288 256.591 59.4586 256.637 59.5979ZM255.456 56.4849C255.072 56.5622 254.77 56.6324 254.573 56.6851C254.323 56.2424 254.084 55.7997 253.869 55.35C254.433 55.6768 254.964 56.0568 255.456 56.4849ZM254.794 57.04C254.793 57.033 254.793 57.0259 254.794 57.0189L254.823 57.04C254.967 57.1349 255.107 57.2262 255.238 57.3211C255.354 57.4054 255.459 57.4862 255.565 57.5706C255.494 57.6935 255.417 57.82 255.34 57.9219C255.217 57.7287 255.1 57.5425 254.988 57.3492C254.918 57.2719 254.854 57.1665 254.794 57.04ZM252.684 52.7042C253.364 52.6372 254.048 52.6372 254.728 52.7042C254.823 52.7042 254.907 52.7218 254.991 52.7358C255.182 52.7653 255.369 52.8135 255.551 52.8799C255.966 53.4608 256.222 54.1405 256.293 54.851L256.103 54.8791L255.916 54.9143C255.565 54.974 255.213 55.0337 254.939 55.09L254.587 55.1637C254.119 55.2656 253.848 55.3429 253.838 55.3464C253.792 55.2516 253.746 55.1637 253.697 55.0724C253.62 54.9213 253.539 54.7667 253.469 54.6156C253.398 54.4645 253.307 54.2924 253.233 54.1342C253.184 54.0499 253.148 53.9656 253.11 53.8883C253.11 53.8532 253.075 53.8251 253.061 53.7899C253.04 53.7526 253.022 53.7139 253.008 53.674C252.793 53.2383 252.596 52.8026 252.406 52.3739C252.385 52.3318 252.368 52.2861 252.35 52.2439L252.617 52.2264V52.3177L252.684 52.7042ZM168.77 270.668C168.742 265.436 168.362 259.776 167.307 254.463C166.857 252.204 166.393 249.944 165.922 247.724C165.802 247.169 165.686 246.621 165.57 246.072L164.487 246.216H164.388C161.434 232.299 158.346 220.037 158.346 220.037C158.346 220.037 152.212 196.639 152.922 194.774C153.014 194.531 152.898 193.878 152.638 192.918C151.153 187.599 144.956 172.94 142.79 167.93C142.79 167.909 142.772 167.884 142.765 167.866C142.413 167.027 142.16 166.461 142.083 166.296L142.593 158.819L142.621 158.369L142.688 157.413L142.66 157.389L142.688 156.946C142.688 156.946 137.335 152.561 128.268 149.395C127.916 149.269 127.543 149.146 127.174 149.026C127.628 146.001 128.229 142.586 129.013 139.259C129.087 138.925 129.168 138.602 129.252 138.275C129.326 137.948 129.411 137.632 129.495 137.312C129.629 136.792 129.773 136.279 129.921 135.773C130.41 135.618 130.891 135.446 131.366 135.264L131.549 135.193C137.398 132.92 142.225 128.605 145.135 123.05C148.044 117.494 148.841 111.073 147.376 104.976C146.541 101.518 144.998 98.2704 142.846 95.4368C142.684 95.2189 142.512 95.0011 142.34 94.7868C142.167 94.5724 141.96 94.3335 141.766 94.1157C142.783 91.8072 143.982 89.6112 144.08 87.366C144.098 87.0817 144.098 86.7965 144.08 86.5122V86.4771C143.95 85.033 143.31 83.5713 141.819 82.0359C139.642 79.7836 136.543 78.6417 133.445 78.0936C130.346 77.5455 127.188 77.5314 124.072 77.1625C118.905 76.5441 113.872 74.9524 108.706 74.464C102.342 73.8753 95.9348 74.9657 90.125 77.6263C86.2809 79.3831 82.3875 82.454 82.1553 86.6668C81.9654 90.1488 84.3922 93.4867 83.7802 96.9265C83.1718 100.307 79.7251 102.966 80.0275 106.385C80.1436 107.72 80.8294 108.915 81.6876 109.98C81.983 110.331 82.296 110.682 82.6196 111.034C83.8717 112.358 85.2504 113.63 85.9503 115.299C85.9784 115.369 86.0065 115.44 86.0312 115.51C86.6255 117.158 86.3582 119.242 84.8881 120.187C84.8962 120.193 84.9024 120.202 84.9057 120.211C84.9268 120.239 84.9479 120.26 84.9655 120.289C84.9677 120.283 84.9677 120.277 84.9655 120.271C85.4867 120.888 86.1894 121.326 86.9737 121.522L87.2727 121.613C87.03 121.877 86.8014 122.151 86.5693 122.439L86.418 122.639C86.0304 123.16 85.678 123.706 85.3629 124.273C85.1835 124.589 85.0112 124.905 84.867 125.222C84.3849 126.186 84.0359 127.21 83.8295 128.268C83.4532 130.594 83.9842 133.018 83.4145 135.295C82.711 138.106 80.4847 140.263 79.2291 142.874C76.8516 147.793 78.1986 153.566 78.677 158.998C79.3276 166.377 78.2725 173.787 77.2209 181.116C76.6629 185.014 76.1048 188.915 75.5468 192.82C74.1399 202.621 72.7331 212.421 71.3263 222.222C70.8128 225.813 70.2043 229.601 67.8092 232.373H67.8338C67.8338 232.373 67.8338 232.394 67.8092 232.401C68.5282 232.715 69.2929 232.912 70.0742 232.984C73.2009 233.297 76.514 231.786 79.3276 230.135C81.5558 228.848 83.6661 227.368 85.6337 225.711C85.3453 226.765 85.0358 227.914 84.7052 229.151C84.7063 229.163 84.7063 229.174 84.7052 229.186C80.7344 244.295 74.3474 271.992 74.3474 271.992C74.3474 271.992 73.7671 273.198 73.0145 274.993H172.196C171.035 273.588 169.956 272.242 169.112 271.156L168.77 270.668ZM95.3338 130.966C95.3584 130.924 95.376 130.886 95.4007 130.847C95.4007 130.959 95.4007 131.068 95.4007 131.174C95.4007 131.279 95.4007 131.374 95.4007 131.472C95.4007 131.571 95.4007 131.56 95.4007 131.609C95.4007 131.659 95.4007 131.609 95.4007 131.609C95.4007 131.753 95.369 131.898 95.3444 132.042C95.3444 132.042 95.3444 132.059 95.3444 132.073L95.6961 132.203L96.1041 132.372C98.5144 133.323 100.955 134.184 103.427 134.954C103.68 135.035 103.937 135.113 104.193 135.186L104.246 135.622C104.309 136.068 104.369 136.521 104.425 136.975C104.425 136.975 104.425 136.996 104.425 137.01C104.584 138.264 104.738 139.515 104.876 140.738C104.876 140.738 98.4183 138.278 98.4992 142.013C98.4955 142.08 98.4955 142.147 98.4992 142.214C98.492 142.302 98.492 142.392 98.4992 142.481C98.559 145.39 99.4699 147.115 99.6528 148C99.6418 148.037 99.6226 148.071 99.5965 148.099C99.4405 148.438 99.3867 148.815 99.4418 149.185C99.4356 149.813 99.4851 150.441 99.5895 151.061C99.3996 151.177 99.2132 151.293 99.0268 151.412C98.8861 151.5 98.7524 151.598 98.6153 151.697C97.7525 148.707 96.6237 145.8 95.2424 143.011C94.2752 141.022 93.1884 138.949 93.199 136.767C93.199 136.627 93.199 136.483 93.2166 136.339C93.2558 135.706 93.3763 135.082 93.5753 134.48C93.6562 134.252 93.7441 134.027 93.8426 133.805C94.0724 133.279 94.3295 132.766 94.6128 132.266C94.7957 131.936 94.9891 131.609 95.1756 131.279C95.2353 131.181 95.2916 131.079 95.3479 130.98L95.3338 130.966ZM253.25 54.1342C253.201 54.0499 253.166 53.9656 253.127 53.8883C253.127 53.8532 253.092 53.8251 253.078 53.7899C253.001 53.826 252.923 53.8577 252.842 53.8848C252.688 53.9445 252.529 54.0007 252.368 54.0464C252.206 54.0921 252.139 54.1167 252.016 54.1448L251.703 54.2256L251.731 54.2888C251.861 54.2607 251.988 54.2361 252.118 54.201L252.153 54.6367C252.301 54.6367 252.438 54.6156 252.572 54.6156H252.762C253.036 54.6156 253.275 54.6156 253.465 54.6156C253.391 54.4575 253.314 54.2924 253.25 54.1342Z" fill="url(#paint1_linear_3_19)"/>
<path d="M176.402 105.742L174.292 106.673C174.292 106.673 160.537 160.059 160.537 164.374C160.537 168.689 189.704 192.697 189.704 192.697L194.255 162.009C194.255 162.009 187.72 91.635 176.402 105.742Z" fill="#E8F5FF"/>
<path d="M240.381 88.7609L228.195 82.4083C227.512 79.5013 226.301 76.7442 224.621 74.2743C222.838 71.7023 220.468 69.176 217.513 67.8584C210.047 64.5135 249.097 46.9559 249.097 46.9559C249.712 49.0651 250.436 51.1409 251.267 53.175C253.279 58.1363 256.616 64.5521 260.918 66.3792C268.23 69.4887 240.381 88.7609 240.381 88.7609Z" fill="#FFC1C7"/>
<path opacity="0.1" d="M251.267 53.175C249.598 59.0375 246.129 64.2282 241.347 68.0141C236.566 71.8 230.716 73.9898 224.621 74.2743C222.838 71.7023 220.468 69.176 217.513 67.8584C210.047 64.5135 249.097 46.9559 249.097 46.9559C249.712 49.0651 250.436 51.1409 251.267 53.175Z" fill="black"/>
<path d="M252.364 44.3102C252.366 50.0598 250.66 55.6806 247.464 60.4619C244.267 65.2431 239.723 68.9699 234.406 71.171C229.09 73.3721 223.239 73.9485 217.594 72.8274C211.949 71.7063 206.764 68.938 202.694 64.8727C198.624 60.8074 195.853 55.6276 194.73 49.9886C193.607 44.3495 194.183 38.5044 196.386 33.1925C198.588 27.8807 202.318 23.3407 207.104 20.1467C211.89 16.9528 217.516 15.2484 223.271 15.2491C227.096 15.2314 230.887 15.971 234.425 17.4252C237.962 18.8793 241.176 21.0192 243.881 23.7213C246.586 26.4233 248.729 29.634 250.185 33.1678C251.641 36.7017 252.381 40.4887 252.364 44.3102Z" fill="#FFC1C7"/>
<path d="M256.564 85.0295L248.629 103.525L241.63 115.802H219.226L212.692 99.0172L215.34 81.6107H232.45L243.498 80.9888L247.229 79.745L249.635 81.1083L256.564 85.0295Z" fill="#575A89"/>
<path opacity="0.1" d="M253.831 60.3744C253.831 60.3744 258.779 61.4285 254.348 65.0581C249.916 68.6876 234.628 80.2299 234.628 80.2299C234.628 80.2299 239.998 85.0084 238.887 90.6056L256.68 80.6972L259.845 64.8438C259.845 64.8438 260.2 60.0793 253.831 60.3744Z" fill="black"/>
<path opacity="0.1" d="M238.127 80.2299L226.809 82.0956C226.809 82.0956 229.144 90.7215 227.977 93.1705C227.941 93.2466 227.912 93.3253 227.889 93.4059L223.271 105.876L226.732 115.668L238.711 99.3474L234.627 93.1705C234.627 93.1705 238.943 87.4574 241.51 85.4757C244.078 83.494 238.127 80.2299 238.127 80.2299Z" fill="black"/>
<path d="M238.127 79.7485L226.809 81.6107C226.809 81.6107 229.144 90.2366 227.977 92.6856C227.941 92.7617 227.912 92.8404 227.889 92.921L223.271 105.391L226.732 115.183L238.711 98.852L234.627 92.6751C234.627 92.6751 238.943 86.9619 241.51 84.9802C244.078 82.9986 238.127 79.7485 238.127 79.7485Z" fill="#DCE6F2"/>
<path d="M254.306 59.4433C254.306 59.4433 259.254 60.4974 254.819 64.127C250.384 67.7565 234.628 80.2299 234.628 80.2299C234.628 80.2299 240.462 84.0773 239.355 89.6709L257.147 79.7661L260.313 63.9126C260.313 63.9126 260.664 59.1482 254.306 59.4433Z" fill="#575A89"/>
<path opacity="0.1" d="M225.399 75.374C225.399 75.374 226.478 77.3908 231.244 81.0274C231.244 81.0274 223.31 85.2438 226.345 91.1712L214.207 88.009L212.34 82.1799L225.399 75.374Z" fill="black"/>
<path d="M224.931 74.9102C224.931 74.9102 226.011 76.9271 230.776 80.5637C230.776 80.5637 222.842 84.7589 225.877 90.7039L213.743 87.5417L211.876 81.7161L224.931 74.9102Z" fill="#575A89"/>
<path opacity="0.1" d="M256.564 85.0294L248.629 103.525L241.644 115.802H219.226L212.692 99.0171L215.336 81.6107H220.095C220.018 85.6724 221.502 90.4439 221.407 92.2183C221.245 95.1346 225.761 110.869 225.761 110.869C225.761 110.869 235.211 95.5984 238.943 94.2386C241.289 93.3848 246.258 86.2803 249.631 81.1082L256.564 85.0294Z" fill="black"/>
<path d="M287.82 182.36L287.014 183.372C287.014 183.372 292.849 212.63 291.235 219.274C290.96 220.472 290.804 221.693 290.767 222.921V222.974C290.482 229.734 292.526 238.508 292.526 238.508C292.526 238.508 294.158 264.368 293.229 275.004H183.982C183.342 259.277 182.652 238.901 183.278 236.642C184.333 232.914 186.444 219.39 186.444 219.39L186.676 212.981C186.676 212.981 186.676 206.787 186.866 199.886C186.947 196.783 187.066 193.526 187.238 190.638C187.46 187.005 187.77 183.945 188.195 182.441C188.457 181.301 188.608 180.138 188.645 178.969C188.645 178.861 188.645 178.748 188.666 178.636C188.666 178.284 188.702 177.905 188.716 177.515C188.716 177.406 188.716 177.297 188.716 177.163C188.783 174.901 188.758 172.216 188.684 169.433C188.684 169.282 188.684 169.128 188.684 168.973C188.624 166.886 188.536 164.757 188.438 162.733C188.132 156.409 187.734 151.061 187.734 151.061L174.317 106.649L177.932 97.7522L187.967 91.6104L206.519 80.4196C215.569 72.9883 221.526 73.8807 223.798 74.6959C224.019 74.7711 224.235 74.8591 224.446 74.9594C224.516 74.9946 224.572 75.0227 224.625 75.0543C224.697 75.0885 224.767 75.1284 224.833 75.1738C224.21 75.4728 223.67 75.9176 223.257 76.4703C222.792 77.0993 222.46 77.8167 222.283 78.5784C222.164 79.0506 222.08 79.531 222.033 80.0155C221.987 80.525 221.97 81.052 221.97 81.5826C221.995 82.7461 222.095 83.9068 222.269 85.0575C222.269 85.0786 222.269 85.1067 222.269 85.1348C222.385 85.957 222.529 86.7617 222.67 87.5171C222.668 87.5299 222.668 87.5429 222.67 87.5557C222.831 88.4377 222.993 89.2528 223.102 89.9555C223.123 90.082 223.141 90.198 223.158 90.3069C223.236 90.7713 223.272 91.2416 223.267 91.7123C223.307 92.8491 223.46 93.9791 223.725 95.0854C223.816 95.5492 223.922 96.0446 224.038 96.5611C224.196 97.2638 224.368 98.0298 224.555 98.8098C224.657 99.2385 224.766 99.6812 224.878 100.12C224.92 100.296 224.966 100.472 225.008 100.651L225.079 100.929C225.828 103.905 226.64 106.867 227.14 108.658C227.435 109.713 227.622 110.363 227.622 110.363C227.622 110.363 232.918 101.807 237.146 96.9371C237.209 96.8668 237.265 96.8001 237.325 96.7368C237.744 96.2554 238.155 95.8162 238.549 95.4297C239.411 94.5724 240.185 93.9611 240.807 93.7362C240.94 93.6876 241.068 93.6276 241.19 93.557C242.921 92.5767 245.713 89.0174 248.327 85.2894C248.583 84.9381 248.833 84.5551 249.086 84.1932C249.667 83.357 250.229 82.5172 250.76 81.7126C251.168 81.0977 251.559 80.5004 251.928 79.9312C253.687 77.1976 254.925 75.1597 254.925 75.1597L257.365 75.0508L257.791 75.0297H258.076L269.158 74.5167C269.158 74.5167 269.637 74.5975 270.424 74.7556C270.467 74.7556 270.509 74.7556 270.554 74.7837C274.487 75.5638 285.411 78.0338 286.079 81.4596C286.895 85.6549 304.515 91.2521 304.515 91.2521C304.747 94.0629 309.063 95.9146 309.063 95.9146C309.063 95.9146 315.598 113.166 313.85 119.927C312.123 126.603 318.344 143.117 318.51 143.58L317.317 145.084L287.82 182.36Z" fill="#E8F5FF"/>
<path opacity="0.1" d="M253.827 59.1482C253.827 59.1482 264.614 56.0913 267.066 62.3842C269.517 68.6771 275 94.0911 275 94.0911C275 94.0911 260.763 96.772 257.031 94.0911C254.842 92.5 252.133 91.7923 249.445 92.1094L241.394 97.5871L239.017 96.8844C239.017 96.8844 251.896 77.7563 254.696 71.2561C257.496 64.7559 258.442 61.8501 253.827 59.1482Z" fill="black"/>
<path d="M253.359 57.7427C253.359 57.7427 264.153 54.6859 266.615 60.9788C269.077 67.2716 274.55 92.6856 274.55 92.6856C274.55 92.6856 260.316 95.3665 256.581 92.6856C254.394 91.0944 251.685 90.3867 248.998 90.7039L240.941 96.1817L238.563 95.4789C238.563 95.4789 251.443 76.3508 254.242 69.8506C257.042 63.3504 257.974 60.4517 253.359 57.7427Z" fill="#E8F5FF"/>
<path opacity="0.1" d="M180.953 159.128C180.953 159.128 189.004 161.11 190.523 165.656C192.043 170.203 184.573 170.319 184.573 170.319C184.573 170.319 180.021 162.276 180.953 159.128Z" fill="black"/>
<path opacity="0.1" d="M210.94 192.697C210.94 192.697 191.223 233.03 195.774 236.877C200.326 240.725 210.94 192.697 210.94 192.697Z" fill="black"/>
<path opacity="0.1" d="M238.127 162.975C238.127 162.975 253.88 202.152 250.729 208.203C247.577 214.253 257.496 208.203 257.496 208.203L238.127 162.975Z" fill="black"/>
<path d="M260.063 201.674C260.063 201.674 206.857 204.239 222.378 220.792C237.898 237.345 269.749 221.495 269.749 221.495L260.063 201.674Z" fill="#FFC1C7"/>
<path opacity="0.1" d="M252.364 44.3102C252.369 48.1225 251.62 51.8982 250.159 55.4202C249.67 55.4765 249.181 55.5116 248.71 55.5327C248.007 53.9902 248.383 52.2088 248.397 50.5117C248.411 48.8146 247.785 46.8189 246.15 46.3621C242.889 45.4451 240.638 51.5342 237.424 50.4344C234.962 49.5982 235.605 45.8667 234.188 43.7129C233.066 42.0088 230.819 41.5274 229.071 40.4593C225.353 38.1789 225.466 34.5318 223.739 31.0814C221.931 27.4659 218.111 28.5341 214.795 30.6668C212.277 32.2901 210.103 34.465 207.409 35.7581C205.077 36.8824 202.457 37.29 199.872 37.3497C198.28 37.4113 196.688 37.2433 195.145 36.8508C196.96 30.0322 201.196 24.1061 207.063 20.1775C212.929 16.249 220.026 14.5861 227.029 15.4992C234.032 16.4122 240.464 19.8388 245.125 25.1398C249.786 30.4409 252.358 37.2546 252.361 44.3102H252.364Z" fill="black"/>
<path d="M214.805 29.7357C212.284 31.359 210.114 33.5304 207.419 34.8304C205.088 35.9513 202.467 36.3589 199.882 36.4186C196.717 36.4889 193.309 35.9337 191.146 33.6499C189.159 31.5417 188.684 28.2986 189.525 25.5334C190.365 22.7682 192.38 20.4738 194.747 18.8119C197.114 17.1499 199.861 16.001 201.43 13.6223C202.26 12.3644 202.661 10.8816 203.35 9.54296C205.555 5.25987 210.514 2.94088 215.308 2.65276C220.102 2.36465 224.854 3.79117 229.419 5.33716C233.984 6.88315 238.584 8.58374 243.403 8.90348C245.548 9.037 247.778 8.90348 249.769 9.71513C252.445 10.8008 254.2 13.3974 255.396 16.0396C256.736 19.0192 257.569 22.2728 257.429 25.5264C257.133 32.4728 252.54 39.2892 254.559 45.944C255.093 47.7184 256.096 49.5384 255.561 51.3128C254.78 53.9023 251.436 54.4926 248.731 54.6156C248.028 53.0731 248.404 51.2882 248.418 49.5946C248.432 47.9011 247.806 45.9018 246.174 45.4451C242.91 44.535 240.659 50.6136 237.452 49.5173C235.007 48.6776 235.64 44.9496 234.22 42.7958C233.098 41.0882 230.847 40.6103 229.102 39.5422C225.385 37.2619 225.497 33.6147 223.77 30.1644C221.949 26.5313 218.125 27.5994 214.805 29.7357Z" fill="#99607E"/>
<path d="M163.213 163.439L160.53 164.374C160.53 164.374 161.585 180.227 158.068 184.774C154.551 189.321 169.618 200.624 169.618 200.624C169.618 200.624 190.27 200.508 190.854 198.867C191.438 197.226 189.799 169.493 189.799 169.493C189.799 169.493 178.713 165.179 179.645 158.302C179.645 158.302 176.262 174.504 171.246 173.804C166.231 173.105 160.537 168.921 163.213 163.439Z" fill="#E8F5FF"/>
<path opacity="0.1" d="M172.164 178.709C176.074 178.709 179.244 175.813 179.244 172.241C179.244 168.668 176.074 165.772 172.164 165.772C168.254 165.772 165.084 168.668 165.084 172.241C165.084 175.813 168.254 178.709 172.164 178.709Z" fill="black"/>
<path d="M179.905 163.907C179.905 163.907 178.499 121.012 166.252 130.569C154.006 140.126 153.886 151.556 156.218 154.933C158.55 158.309 166.027 175.213 166.027 175.213C167.197 175.891 168.51 176.281 169.86 176.354C171.21 176.426 172.558 176.177 173.793 175.629C175.028 175.08 176.116 174.247 176.967 173.198C177.818 172.149 178.408 170.913 178.688 169.592L179.905 163.907Z" fill="#FFC1C7"/>
<path opacity="0.1" d="M256.3 55.2551C256.243 55.0666 256.133 54.8984 255.983 54.7702C255.378 54.2186 254.077 54.0253 252.114 54.194L252.195 55.1216C254.812 54.8967 255.329 55.4167 255.396 55.5046V55.5924L255.477 55.7083C255.803 56.1464 256.034 56.6477 256.155 57.1801C256.276 57.7126 256.285 58.2644 256.18 58.8003C255.607 61.6639 252.086 63.9443 252.051 63.9688L251.967 64.018L251.914 64.0988C250.395 66.3511 241.802 72.7072 239.555 74.3516L239.358 74.1267C238.352 74.9981 229.51 82.7315 229.032 85.6935C228.722 87.5522 226.626 88.2725 225.867 88.4728C225.065 87.8649 222.462 85.7954 221.108 83.4764C219.838 81.2945 224.949 77.036 225.399 75.374L224.695 74.6537C224.621 74.9208 218.059 81.0485 219.884 84.1791C221.347 86.6914 224.02 88.8417 224.956 89.5515C224.657 92.264 222.796 108.191 219.937 111.965C216.384 116.655 213.398 140.295 213.729 148.549C214.021 155.881 212.104 169.732 205.703 175.681C204.595 176.756 203.258 177.567 201.792 178.053C200.326 178.54 198.769 178.69 197.238 178.492H197.16H197.083C196.991 178.492 187.706 179.44 179.905 172.87C173.522 167.504 169.906 158.749 169.154 146.837H168.999L168.936 143.369C170.666 143.1 172.225 142.17 173.284 140.776C174.343 139.382 174.821 137.632 174.615 135.894C174.41 134.156 173.539 132.566 172.184 131.456C170.829 130.347 169.097 129.805 167.351 129.945C165.605 130.084 163.981 130.895 162.82 132.206C161.66 133.517 161.053 135.226 161.127 136.974C161.202 138.723 161.952 140.374 163.22 141.582C164.487 142.79 166.174 143.459 167.926 143.45H168.004L168.067 146.897L167.757 146.918C168.531 159.216 172.33 168.313 179.012 173.931C184.091 178.136 190.579 180.257 197.164 179.865C197.631 179.916 198.1 179.942 198.57 179.943C201.589 179.958 204.493 178.791 206.66 176.693C213.402 170.421 215.452 156.061 215.132 148.478C214.781 139.733 217.914 116.944 221.059 112.794C224.14 108.722 226.007 92.8543 226.334 89.7799C227.449 89.4671 229.971 88.4798 230.4 85.9149C230.71 84.0597 236.615 78.343 240.248 75.1773L240.139 75.0508C242.094 73.6243 248.175 69.1268 251.189 66.2386C252.125 65.3427 253.053 64.4467 254.024 63.5929C255.192 62.5599 256.676 60.919 257.066 58.9795C257.2 58.3393 257.2 57.6786 257.068 57.0382C256.936 56.3977 256.675 55.7909 256.3 55.2551Z" fill="black"/>
<path d="M224.836 89.3301C224.688 89.2282 221.185 86.723 219.43 83.7083C217.608 80.5777 224.171 74.4535 224.242 74.1864L224.945 74.9067C224.498 76.5652 219.388 80.8272 220.658 83.0056C222.258 85.7568 225.627 88.1636 225.663 88.1882L224.836 89.3301Z" fill="#353146"/>
<path d="M239.098 75.0332L238.549 74.2778C238.662 74.197 249.709 66.214 251.45 63.6315L251.506 63.5542L251.587 63.5015C251.622 63.4769 255.143 61.2001 255.716 58.333C255.822 57.7977 255.814 57.2462 255.692 56.7141C255.571 56.1821 255.34 55.6814 255.012 55.2445L254.932 55.1251V55.0407C254.861 54.9494 254.344 54.4329 251.728 54.6578L251.647 53.7267C253.613 53.558 254.91 53.7513 255.515 54.3029C255.666 54.4323 255.777 54.6016 255.835 54.7913C256.216 55.3255 256.483 55.9319 256.619 56.573C256.756 57.2142 256.76 57.8765 256.63 58.5192C256.24 60.4623 254.759 62.1031 253.588 63.1326C252.621 63.9864 251.689 64.8894 250.757 65.7783C247.222 69.162 239.485 74.7556 239.098 75.0332Z" fill="#E8F5FF"/>
<path d="M168.482 142.146L167.55 142.163L167.654 147.823L168.586 147.806L168.482 142.146Z" fill="#E8F5FF"/>
<path d="M167.473 143.004C171.231 143.004 174.278 139.96 174.278 136.205C174.278 132.45 171.231 129.406 167.473 129.406C163.714 129.406 160.667 132.45 160.667 136.205C160.667 139.96 163.714 143.004 167.473 143.004Z" fill="#6C63FF"/>
<path d="M167.472 141.852C170.594 141.852 173.124 139.324 173.124 136.205C173.124 133.087 170.594 130.559 167.472 130.559C164.351 130.559 161.821 133.087 161.821 136.205C161.821 139.324 164.351 141.852 167.472 141.852Z" fill="#E8F5FF"/>
<path d="M198.127 179.489C197.657 179.49 197.188 179.465 196.721 179.416C190.136 179.803 183.65 177.682 178.569 173.481C171.886 167.859 168.095 158.773 167.314 146.465L168.721 146.377C169.474 158.288 173.089 167.048 179.476 172.409C187.277 178.962 196.559 178.031 196.65 178.031H196.728H196.805C198.337 178.229 199.894 178.078 201.361 177.592C202.827 177.105 204.165 176.295 205.274 175.22C211.672 169.272 213.588 155.421 213.297 148.088C212.945 139.828 215.931 116.188 219.487 111.501C222.599 107.394 224.53 88.8804 224.551 88.6941L224.604 88.1671L225.124 88.0757C225.156 88.0757 228.195 87.4995 228.575 85.2297C229.067 82.2713 237.895 74.5378 238.897 73.6629L239.815 74.717C236.168 77.8792 230.263 83.5994 229.967 85.4581C229.538 88.0301 227.017 89.0139 225.905 89.3231C225.554 92.401 223.7 108.265 220.63 112.337C217.485 116.487 214.352 139.276 214.703 148.022C215.006 155.604 212.976 169.968 206.234 176.236C204.063 178.34 201.152 179.508 198.127 179.489Z" fill="#353146"/>
<g opacity="0.1">
<path opacity="0.1" d="M255.361 36.004C255.937 33.8748 256.634 31.7315 257.119 29.5741C256.539 31.742 255.839 33.8748 255.361 36.004Z" fill="black"/>
<path opacity="0.1" d="M249.477 52.7358C248.773 51.1934 249.15 49.4085 249.164 47.7149C249.178 46.0213 248.552 44.0396 246.92 43.5653C243.656 42.6553 241.405 48.7374 238.197 47.6376C235.735 46.7978 236.386 43.0699 234.965 40.916C233.843 39.2084 231.596 38.7306 229.851 37.6624C226.13 35.3821 226.243 31.735 224.519 28.2846C222.708 24.6656 218.892 25.7337 215.572 27.87C213.05 29.4933 210.88 31.6682 208.186 32.9647C205.854 34.0856 203.234 34.4932 200.649 34.5529C197.501 34.6267 194.076 34.068 191.913 31.7842C190.246 30.0274 189.644 27.4519 189.989 25.038C189.929 25.2032 189.876 25.3683 189.824 25.5334C188.979 28.2987 189.472 31.5487 191.445 33.6499C193.608 35.9337 197.034 36.4889 200.181 36.4186C202.77 36.3589 205.387 35.9513 207.722 34.8305C210.423 33.5304 212.593 31.359 215.108 29.7357C218.428 27.5994 222.247 26.5313 224.055 30.1503C225.779 33.6007 225.67 37.2478 229.387 39.5282C231.146 40.5823 233.379 41.0742 234.504 42.7818C235.911 44.9426 235.289 48.6636 237.737 49.5033C240.941 50.5996 243.192 44.521 246.455 45.431C248.087 45.8878 248.717 47.8906 248.699 49.5806C248.682 51.2707 248.316 53.0591 249.012 54.6016C251.717 54.4786 255.062 53.8988 255.846 51.2988C255.954 50.9256 256.004 50.5381 255.994 50.1498C254.851 52.121 251.91 52.6269 249.477 52.7358Z" fill="black"/>
</g>
<path opacity="0.1" d="M313.041 139.311L317.124 143.626C317.124 143.626 320.391 167.403 322.023 169.627C323.655 171.851 327.51 180.698 323.891 187.342C323.891 187.342 322.723 190.958 323.423 192.472C324.123 193.987 318.176 201.565 318.176 201.565C318.176 201.565 310.357 208.558 308.722 209.608C307.086 210.659 298.455 219.049 295.54 219.165C292.624 219.281 291.671 222.897 291.671 222.897L275.218 223.48C275.218 223.48 266.13 223.006 264.153 224.288C264.153 224.288 265.208 210.416 255.055 201.323L268.005 196.66C268.005 196.66 272.907 194.552 274.423 192.349C275.377 190.999 276.73 189.98 278.292 189.436C278.292 189.436 281.908 186.872 282.024 185.473C282.14 184.075 286.445 182.36 286.445 182.36L284.007 161.577L285.291 127.073C285.291 127.073 289.374 98.1633 298.009 99.7972C306.643 101.431 313.041 139.311 313.041 139.311Z" fill="black"/>
<path d="M314.448 139.311L318.531 143.626C318.531 143.626 321.798 167.403 323.43 169.627C325.062 171.851 328.917 180.698 325.298 187.342C325.298 187.342 324.134 190.958 324.833 192.472C325.533 193.987 319.582 201.565 319.582 201.565C319.582 201.565 311.764 208.558 310.129 209.608C308.493 210.659 299.862 219.049 296.947 219.165C294.031 219.281 293.078 222.897 293.078 222.897L276.625 223.48C276.625 223.48 267.53 223.006 265.56 224.288C265.56 224.288 266.615 210.416 256.462 201.323L269.411 196.66C269.411 196.66 274.314 194.552 275.83 192.349C276.784 190.999 278.137 189.98 279.699 189.436C279.699 189.436 283.314 186.872 283.43 185.473C283.547 184.075 287.851 182.36 287.851 182.36L285.414 161.577L286.698 127.073C286.698 127.073 290.781 98.1633 299.416 99.7972C308.05 101.431 314.448 139.311 314.448 139.311Z" fill="#E8F5FF"/>
<path opacity="0.1" d="M299.268 174.166C299.268 174.166 311.286 171.004 314.437 174.869C317.588 178.734 299.268 174.166 299.268 174.166Z" fill="black"/>
<path opacity="0.1" d="M296.468 179.468C300.552 182.325 313.153 182.441 313.153 182.441L296.468 179.468Z" fill="black"/>
<path opacity="0.1" d="M302.651 193.748C303.003 193.864 311.314 202.725 314.803 200.044C318.292 197.363 302.651 193.748 302.651 193.748Z" fill="black"/>
<path opacity="0.1" d="M190.724 119.379C190.724 119.379 193.165 136.167 191.962 143.004C190.759 149.842 195.148 158.313 195.148 158.313L190.724 119.379Z" fill="black"/>
<path d="M136.688 126.205C133.874 128.409 131.82 133.623 130.332 139.353C127.737 149.35 126.889 160.941 126.889 160.941C126.889 160.941 104.485 155.811 106.117 153.482C107.144 152.016 105.765 140.977 104.615 132.973C103.93 128.243 103.318 124.572 103.318 124.572C103.318 124.572 144.39 120.141 136.688 126.205Z" fill="#FFCCD0"/>
<path opacity="0.1" d="M136.688 125.738C133.874 127.945 131.82 133.155 130.332 138.886C125.869 140.24 121.121 140.362 116.594 139.24C112.066 138.117 107.927 135.791 104.615 132.509C103.93 127.776 103.318 124.104 103.318 124.104C103.318 124.104 144.39 119.677 136.688 125.738Z" fill="black"/>
<path d="M148.73 113.181C148.732 119.292 146.57 125.207 142.627 129.879C138.684 134.551 133.213 137.679 127.183 138.708C121.153 139.738 114.953 138.604 109.68 135.506C104.407 132.408 100.401 127.546 98.3708 121.781C96.3408 116.016 96.4178 109.72 98.588 104.006C100.758 98.2922 104.882 93.5296 110.229 90.5612C115.576 87.5927 121.802 86.6098 127.805 87.7863C133.808 88.9629 139.201 92.223 143.029 96.9898C146.718 101.582 148.729 107.293 148.73 113.181Z" fill="#FFCCD0"/>
<path opacity="0.1" d="M169.157 275.004H161.771L161.149 261.972L160.498 248.483C160.498 248.483 162.176 248.233 164.849 247.861L165.929 247.717H166.016C166.6 250.454 167.177 253.265 167.733 256.072C168.658 261.056 169.139 266.112 169.171 271.181C169.171 271.532 169.171 271.883 169.171 272.214C169.192 273.152 169.171 274.09 169.157 275.004Z" fill="black"/>
<path d="M167.74 275.004H75.1141C75.5151 274.094 75.7824 273.542 75.7824 273.542C75.7824 273.542 83.1929 241.153 86.9596 227.45C86.9608 227.439 86.9608 227.427 86.9596 227.415C87.4303 225.554 87.9985 223.718 88.6619 221.916C88.7048 221.794 88.7602 221.676 88.8272 221.565C90.6913 218.536 93.0266 215.272 89.7592 210.61C86.4919 205.947 87.649 185.431 87.649 185.431C87.649 185.431 91.6162 167.944 95.8156 158.619C96.4529 157.174 97.3574 155.863 98.4816 154.754C98.8471 154.396 99.2372 154.065 99.6492 153.763C99.9625 153.528 100.289 153.311 100.627 153.113L100.694 153.071C102.458 152.071 104.417 151.464 106.437 151.289C107.872 151.139 109.321 151.179 110.746 151.409C117.555 152.407 123.006 154.075 127.339 155.976C139.083 161.131 142.638 168.039 142.709 168.183L142.737 168.242C143.208 169.342 150.102 185.42 152.585 192.922C153.228 194.876 153.58 196.249 153.439 196.625C152.736 198.488 158.806 221.8 158.806 221.8C158.806 221.8 161.62 233.044 164.434 246.224C164.557 246.772 164.673 247.32 164.785 247.875C165.288 250.268 165.788 252.706 166.27 255.141C167.203 260.159 167.685 265.251 167.708 270.355C167.76 271.945 167.77 273.495 167.74 275.004Z" fill="#FF748E"/>
<path opacity="0.1" d="M105.885 143.271C105.885 143.271 99.4945 140.812 99.5719 144.543C99.6492 148.275 101.13 150.059 100.662 150.604C100.194 151.149 100.894 154.413 100.894 154.413C100.894 154.413 109.529 154.413 113.496 156.198C117.463 157.983 132.087 161.559 133.955 162.649C135.822 163.738 142.747 168.622 142.747 168.622L143.37 159.374C143.37 159.374 136.213 153.468 124.469 150.439C112.726 147.41 105.885 143.271 105.885 143.271Z" fill="black"/>
<path d="M105.885 142.804C105.885 142.804 99.4945 140.344 99.5719 144.076C99.6492 147.807 101.13 149.592 100.662 150.137C100.194 150.681 100.894 153.945 100.894 153.945C100.894 153.945 109.529 153.945 113.496 155.734C117.463 157.522 132.087 161.096 133.955 162.181C135.822 163.267 142.747 168.155 142.747 168.155L143.377 158.935C143.377 158.935 136.22 153.028 124.476 150C112.733 146.971 105.885 142.804 105.885 142.804Z" fill="#FF748E"/>
<path opacity="0.1" d="M125.176 165.059C125.176 165.059 137.387 178.267 136.765 181.924C136.142 185.582 125.176 165.059 125.176 165.059Z" fill="black"/>
<path opacity="0.1" d="M105.34 212.77C105.34 212.77 96.3889 221.01 93.7511 221.477C91.1133 221.944 95.7734 223.497 98.8051 222.257C101.837 221.017 108.301 217.753 108.301 217.753L105.34 212.77Z" fill="black"/>
<path d="M171.376 275.004H150.503C147.583 272.474 144.823 270.13 143.064 268.721C140.25 266.465 138.221 263.145 136.927 260.475C136.635 259.867 136.382 259.298 136.167 258.781C135.783 257.891 135.445 256.983 135.154 256.058L150.612 246.888C151.466 247.613 152.269 248.398 153.014 249.235L153.2 249.449C154.058 250.461 154.815 251.61 154.881 252.552C154.959 253.648 158.012 257.889 161.131 261.961C164.297 266.104 167.539 270.063 167.754 270.33C167.754 270.33 168.288 271.058 169.161 272.175C169.776 272.983 170.536 273.953 171.376 275.004Z" fill="#FFCCD0"/>
<path opacity="0.1" d="M143.029 96.9898C142.287 98.6623 141.622 100.398 141.524 102.26C141.246 107.636 141.696 119.656 135.738 122.355C132.787 123.683 129.629 120.766 126.393 120.696C124.065 120.647 121.93 122.123 120.509 123.967C119.088 125.812 118.205 128.001 117.175 130.088C116.237 131.982 115.156 133.803 113.943 135.534C113.58 136.064 113.18 136.568 112.747 137.041C109.114 135.51 105.879 133.17 103.288 130.201C100.697 127.231 98.8195 123.71 97.7974 119.905C96.7753 116.101 96.6359 112.113 97.39 108.247C98.1441 104.38 99.7718 100.736 102.149 97.5935C104.526 94.4506 107.59 91.8913 111.107 90.1105C114.624 88.3297 118.502 87.3745 122.445 87.3176C126.387 87.2607 130.291 88.1037 133.858 89.7823C137.425 91.4609 140.562 93.9308 143.029 97.0038V96.9898Z" fill="black"/>
<path d="M141.056 101.312C140.774 106.687 141.228 118.707 135.267 121.402C132.316 122.731 129.158 119.818 125.922 119.747C123.594 119.695 121.462 121.174 120.038 123.015C118.613 124.856 117.738 127.049 116.704 129.139C115.765 131.034 114.685 132.854 113.471 134.585C112.747 135.611 111.945 136.641 110.83 137.217C108.889 138.229 106.536 137.66 104.454 137.01C101.752 136.16 99.0912 135.202 96.4698 134.136C96.53 133.74 96.5605 133.341 96.5613 132.941C96.4839 133.089 96.3995 133.226 96.3151 133.373L96.1498 133.661C95.8508 134.188 95.5589 134.715 95.2916 135.257C95.1896 135.464 95.0911 135.678 95.0032 135.893C94.6495 136.69 94.4274 137.54 94.3455 138.408C94.1661 140.752 95.3233 142.976 96.3502 145.084C100.3 153.239 102.741 162.775 99.7688 171.331C98.4816 175.052 96.2518 178.358 94.6234 181.952C91.7768 188.319 90.9389 195.4 92.2212 202.254C93.0336 206.513 94.6621 210.729 94.2611 215.047C93.5577 222.479 87.1425 228.009 80.7168 231.811C77.2455 233.856 72.9969 235.676 69.311 234.059C71.6604 231.319 72.2653 227.528 72.7718 223.951C74.1575 214.195 75.5468 204.434 76.9395 194.668C77.4952 190.782 78.0497 186.896 78.6031 183.01C79.6371 175.709 80.6852 168.327 80.0381 160.98C79.5668 155.565 78.2373 149.817 80.5867 144.915C81.8282 142.319 84.0405 140.169 84.7298 137.372C85.2961 135.098 84.7685 132.681 85.1413 130.366C85.3454 129.312 85.6908 128.291 86.1683 127.33C86.7763 126.026 87.57 124.816 88.5248 123.739C87.5822 123.465 86.7029 123.089 86.1683 122.302C87.6807 121.318 87.9093 119.101 87.2234 117.436C86.5376 115.77 85.1659 114.502 83.9314 113.188C82.697 111.873 81.5082 110.342 81.3534 108.55C81.0545 105.138 84.466 102.496 85.0675 99.1296C85.6759 95.7038 83.2702 92.3729 83.4637 88.905C83.6888 84.7132 87.5435 81.6669 91.349 79.8996C97.0916 77.2438 103.435 76.1528 109.736 76.7373C114.864 77.2222 119.827 78.8068 124.941 79.4217C128.025 79.7731 131.152 79.8082 134.215 80.3493C137.278 80.8904 140.349 82.0323 142.505 84.2775C148.188 90.198 141.379 95.0714 141.056 101.312Z" fill="#FFE0D0"/>
<path opacity="0.1" d="M136.301 260.478C134.507 259.702 131.243 260.166 125.64 258.461C120.038 256.757 118.958 249.055 118.958 249.055V249.031C118.891 248.855 118.371 247.71 114.847 243.697C110.953 239.267 102.537 216.888 102.537 216.888C102.537 216.888 95.0735 208.881 95.3092 205.929C95.5448 202.978 93.9833 195.125 94.138 186.341C94.2928 177.557 110.939 171.731 110.939 171.731C142.99 166.057 135.443 202.971 134.588 205.768C133.733 208.565 138.168 216.119 138.168 216.119C137.542 219.408 140.736 224.499 140.736 224.499C140.736 224.499 141.509 229.003 141.668 230.714C141.677 230.793 141.694 230.871 141.721 230.946C142.234 232.559 146.419 234.021 148.122 234.91C149.912 235.844 155.669 244.003 155.669 244.003C156.911 249.994 138.087 261.265 136.301 260.478Z" fill="black"/>
<path d="M137.233 259.073C135.443 258.293 132.175 258.76 126.576 257.052C120.977 255.345 119.894 247.65 119.894 247.65V247.625C119.83 247.446 119.306 246.304 115.782 242.292C111.889 237.861 103.472 215.479 103.472 215.479C103.472 215.479 96.0091 207.475 96.2412 204.524C96.4733 201.572 94.9188 193.72 95.0735 184.943C95.2283 176.166 111.864 170.343 111.864 170.343C143.915 164.669 136.368 201.583 135.513 204.38C134.658 207.177 139.093 214.731 139.093 214.731C138.467 218.02 141.661 223.111 141.661 223.111C141.661 223.111 142.434 227.615 142.596 229.327C142.602 229.406 142.619 229.484 142.645 229.558C143.159 231.171 147.344 232.633 149.05 233.522C150.837 234.453 156.598 242.615 156.598 242.615C157.846 248.595 139.023 259.867 137.233 259.073Z" fill="#FF748E"/>
<path opacity="0.1" d="M112.497 189.616C112.497 189.616 126.499 204.373 130.153 204.373C133.807 204.373 112.497 189.616 112.497 189.616Z" fill="black"/>
<path d="M137.233 259.073C135.443 258.293 132.175 258.76 126.576 257.052C120.977 255.345 119.894 247.65 119.894 247.65V247.625C123.604 245.166 133.002 238.219 136.705 235.679C139.311 233.898 141.439 231.28 142.684 229.544C143.198 231.157 147.383 232.619 149.089 233.508C150.875 234.439 156.636 242.601 156.636 242.601C157.846 248.595 139.023 259.867 137.233 259.073Z" fill="#FF748E"/>
<g opacity="0.1">
<path opacity="0.1" d="M86.1894 122.341C86.207 122.369 86.2316 122.393 86.2527 122.421C86.3582 122.288 86.4672 122.154 86.5798 122.028C86.4599 122.144 86.3292 122.249 86.1894 122.341Z" fill="black"/>
<path opacity="0.1" d="M94.349 138.447C94.4967 136.497 95.5413 134.779 96.5191 133.064C95.879 132.818 95.2388 132.569 94.6058 132.309C94.6661 131.914 94.6966 131.516 94.6972 131.117C93.7089 132.874 92.6327 134.603 92.4815 136.581C92.3021 138.928 93.4592 141.149 94.4862 143.257C98.4394 151.409 100.877 160.945 97.9048 169.504C96.614 173.221 94.3877 176.531 92.7593 180.125C89.9138 186.491 89.0771 193.571 90.3607 200.424C91.1661 204.686 92.798 208.898 92.397 213.217C91.6936 220.648 85.282 226.178 78.8528 229.977C76.2255 231.53 73.1551 232.953 70.2184 232.851C69.9465 233.288 69.6433 233.705 69.311 234.098C73.0004 235.725 77.2455 233.894 80.7168 231.842C87.1496 228.048 93.5753 222.531 94.2787 215.086C94.6796 210.768 93.0477 206.555 92.2388 202.293C90.9548 195.441 91.789 188.361 94.6304 181.995C96.2482 178.404 98.4992 175.09 99.7759 171.373C102.748 162.814 100.307 153.278 96.3573 145.126C95.3338 143.004 94.1697 140.794 94.349 138.447Z" fill="black"/>
<path opacity="0.1" d="M142.498 84.3197C142.152 83.9651 141.78 83.6363 141.386 83.3359C145.649 88.8593 139.494 93.5535 139.188 99.4985C138.914 104.874 139.364 116.898 133.403 119.589C130.455 120.921 127.293 118.005 124.061 117.934C121.729 117.885 119.598 119.364 118.174 121.206C116.749 123.047 115.874 125.239 114.843 127.326C113.903 129.22 112.821 131.041 111.607 132.772C110.904 133.802 110.081 134.828 108.962 135.408C107.028 136.416 104.675 135.85 102.59 135.197C100.561 134.56 98.5519 133.857 96.5613 133.089C96.5572 133.455 96.5266 133.82 96.4698 134.181C99.0936 135.25 101.756 136.208 104.457 137.056C106.539 137.709 108.892 138.275 110.83 137.266C111.945 136.687 112.754 135.657 113.475 134.628C114.69 132.898 115.77 131.079 116.707 129.185C117.741 127.098 118.613 124.902 120.041 123.061C121.469 121.22 123.597 119.744 125.925 119.793C129.161 119.863 132.323 122.78 135.27 121.448C141.232 118.757 140.778 106.733 141.056 101.357C141.379 95.1065 148.188 90.2366 142.498 84.3197Z" fill="black"/>
</g>
<path opacity="0.1" d="M96.1533 133.665C95.8544 134.192 95.5625 134.719 95.2952 135.26C95.1932 135.467 95.0947 135.682 95.0068 135.896C93.1638 134.041 88.676 129.631 86.1719 128.264C86.7807 126.961 87.5744 125.751 88.5283 124.674C88.5283 124.674 94.4968 127.825 96.1533 133.665Z" fill="black"/>
<path d="M96.3186 133.377C94.9364 127.126 88.5283 123.742 88.5283 123.742C87.5736 124.82 86.7799 126.029 86.1719 127.333C88.8132 128.777 93.6808 133.619 95.2952 135.26L96.3186 133.377Z" fill="#FF748E"/>
</g>
<defs>
<linearGradient id="paint0_linear_3_19" x1="256.757" y1="33.5234" x2="256.757" y2="27.0654" gradientUnits="userSpaceOnUse">
<stop stop-color="#808080" stop-opacity="0.25"/>
<stop offset="0.54" stop-color="#808080" stop-opacity="0.12"/>
<stop offset="1" stop-color="#808080" stop-opacity="0.1"/>
</linearGradient>
<linearGradient id="paint1_linear_3_19" x1="197.952" y1="275.004" x2="197.952" y2="8.27864e-06" gradientUnits="userSpaceOnUse">
<stop stop-color="#808080" stop-opacity="0.25"/>
<stop offset="0.54" stop-color="#808080" stop-opacity="0.12"/>
<stop offset="1" stop-color="#808080" stop-opacity="0.1"/>
</linearGradient>
<clipPath id="clip0_3_19">
<rect width="382" height="275" fill="white"/>
</clipPath>
</defs>
</svg>
